<?xml version="1.0" encoding="us-ascii" standalone="no"?><svg xmlns="http://www.w3.org/2000/svg" xmlns:xlink="http://www.w3.org/1999/xlink" contentStyleType="text/css" height="1220px" preserveAspectRatio="none" style="width:1646px;height:1220px;background:#FFFFFF;" version="1.1" viewBox="0 0 1646 1220" width="1646px" zoomAndPan="magnify"><defs/><g><!--class orientation_t--><g id="elem_orientation_t"><rect codeLine="8" fill="#F1F1F1" height="145.7813" id="orientation_t" rx="2.5" ry="2.5" style="stroke:#181818;stroke-width:0.5;" width="118" x="52.36" y="262"/><ellipse cx="67.36" cy="278" fill="#EB937F" rx="11" ry="11" style="stroke:#181818;stroke-width:1.0;"/><path d="M71.4694,284 L63.7506,284 L63.7506,271.6094 L71.4694,271.6094 L71.4694,273.7656 L66.2038,273.7656 L66.2038,276.4375 L70.9694,276.4375 L70.9694,278.5938 L66.2038,278.5938 L66.2038,281.8438 L71.4694,281.8438 L71.4694,284 Z " fill="#000000"/><text fill="#000000" font-family="sans-serif" font-size="14" lengthAdjust="spacing" textLength="86" x="81.36" y="282.8467">orientation_t</text><line style="stroke:#181818;stroke-width:0.5;" x1="53.36" x2="169.36" y1="294" y2="294"/><text fill="#000000" font-family="sans-serif" font-size="14" lengthAdjust="spacing" textLength="36" x="58.36" y="310.9951">EAST</text><text fill="#000000" font-family="sans-serif" font-size="14" lengthAdjust="spacing" textLength="30" x="58.36" y="327.292">END</text><text fill="#000000" font-family="sans-serif" font-size="14" lengthAdjust="spacing" textLength="50" x="58.36" y="343.5889">NORTH</text><text fill="#000000" font-family="sans-serif" font-size="14" lengthAdjust="spacing" textLength="49" x="58.36" y="359.8857">SOUTH</text><text fill="#000000" font-family="sans-serif" font-size="14" lengthAdjust="spacing" textLength="73" x="58.36" y="376.1826">UNKNOWN</text><text fill="#000000" font-family="sans-serif" font-size="14" lengthAdjust="spacing" textLength="40" x="58.36" y="392.4795">WEST</text><line style="stroke:#181818;stroke-width:0.5;" x1="53.36" x2="169.36" y1="399.7813" y2="399.7813"/></g><!--class client_t--><g id="elem_client_t"><rect codeLine="18" fill="#F1F1F1" height="129.4844" id="client_t" rx="2.5" ry="2.5" style="stroke:#181818;stroke-width:0.5;" width="145" x="257.86" y="755"/><ellipse cx="301.66" cy="771" fill="#ADD1B2" rx="11" ry="11" style="stroke:#181818;stroke-width:1.0;"/><path d="M304.6288,776.6406 Q304.0506,776.9375 303.41,777.0781 Q302.7694,777.2344 302.0663,777.2344 Q299.5663,777.2344 298.2381,775.5938 Q296.9256,773.9375 296.9256,770.8125 Q296.9256,767.6875 298.2381,766.0313 Q299.5663,764.375 302.0663,764.375 Q302.7694,764.375 303.41,764.5313 Q304.0663,764.6875 304.6288,764.9844 L304.6288,767.7031 Q304.0038,767.125 303.41,766.8594 Q302.8163,766.5781 302.1913,766.5781 Q300.8475,766.5781 300.16,767.6563 Q299.4725,768.7188 299.4725,770.8125 Q299.4725,772.9063 300.16,773.9844 Q300.8475,775.0469 302.1913,775.0469 Q302.8163,775.0469 303.41,774.7813 Q304.0038,774.5 304.6288,773.9219 L304.6288,776.6406 Z " fill="#000000"/><text fill="#000000" font-family="sans-serif" font-size="14" lengthAdjust="spacing" textLength="49" x="322.06" y="775.8467">client_t</text><line style="stroke:#181818;stroke-width:0.5;" x1="258.86" x2="401.86" y1="787" y2="787"/><ellipse cx="268.86" cy="800.6484" fill="none" rx="3" ry="3" style="stroke:#038048;stroke-width:1.0;"/><text fill="#000000" font-family="sans-serif" font-size="14" lengthAdjust="spacing" textLength="85" x="277.86" y="803.9951">input : char*</text><ellipse cx="268.86" cy="816.9453" fill="none" rx="3" ry="3" style="stroke:#038048;stroke-width:1.0;"/><text fill="#000000" font-family="sans-serif" font-size="14" lengthAdjust="spacing" textLength="96" x="277.86" y="820.292">output : char*</text><ellipse cx="268.86" cy="833.2422" fill="none" rx="3" ry="3" style="stroke:#038048;stroke-width:1.0;"/><text fill="#000000" font-family="sans-serif" font-size="14" lengthAdjust="spacing" textLength="43" x="277.86" y="836.5889">fd : int</text><ellipse cx="268.86" cy="849.5391" fill="none" rx="3" ry="3" style="stroke:#038048;stroke-width:1.0;"/><text fill="#000000" font-family="sans-serif" font-size="14" lengthAdjust="spacing" textLength="119" x="277.86" y="852.8857">is_registered : int</text><ellipse cx="268.86" cy="865.8359" fill="none" rx="3" ry="3" style="stroke:#038048;stroke-width:1.0;"/><text fill="#000000" font-family="sans-serif" font-size="14" lengthAdjust="spacing" textLength="114" x="277.86" y="869.1826">player : player_t*</text><line style="stroke:#181818;stroke-width:0.5;" x1="258.86" x2="401.86" y1="876.4844" y2="876.4844"/></g><!--class cmd_t--><g id="elem_cmd_t"><rect codeLine="27" fill="#F1F1F1" height="96.8906" id="cmd_t" rx="2.5" ry="2.5" style="stroke:#181818;stroke-width:0.5;" width="302" x="542.36" y="286.5"/><ellipse cx="668.11" cy="302.5" fill="#ADD1B2" rx="11" ry="11" style="stroke:#181818;stroke-width:1.0;"/><path d="M671.0788,308.1406 Q670.5006,308.4375 669.86,308.5781 Q669.2194,308.7344 668.5163,308.7344 Q666.0163,308.7344 664.6881,307.0938 Q663.3756,305.4375 663.3756,302.3125 Q663.3756,299.1875 664.6881,297.5313 Q666.0163,295.875 668.5163,295.875 Q669.2194,295.875 669.86,296.0313 Q670.5163,296.1875 671.0788,296.4844 L671.0788,299.2031 Q670.4538,298.625 669.86,298.3594 Q669.2663,298.0781 668.6413,298.0781 Q667.2975,298.0781 666.61,299.1563 Q665.9225,300.2188 665.9225,302.3125 Q665.9225,304.4063 666.61,305.4844 Q667.2975,306.5469 668.6413,306.5469 Q669.2663,306.5469 669.86,306.2813 Q670.4538,306 671.0788,305.4219 L671.0788,308.1406 Z " fill="#000000"/><text fill="#000000" font-family="sans-serif" font-size="14" lengthAdjust="spacing" textLength="42" x="688.61" y="307.3467">cmd_t</text><line style="stroke:#181818;stroke-width:0.5;" x1="543.36" x2="843.36" y1="318.5" y2="318.5"/><ellipse cx="553.36" cy="332.1484" fill="none" rx="3" ry="3" style="stroke:#038048;stroke-width:1.0;"/><text fill="#000000" font-family="sans-serif" font-size="14" lengthAdjust="spacing" textLength="89" x="562.36" y="335.4951">name : char*</text><ellipse cx="553.36" cy="348.4453" fill="none" rx="3" ry="3" style="stroke:#038048;stroke-width:1.0;"/><text fill="#000000" font-family="sans-serif" font-size="14" lengthAdjust="spacing" textLength="91" x="562.36" y="351.792">delay : time_t</text><line style="stroke:#181818;stroke-width:0.5;" x1="543.36" x2="843.36" y1="359.0938" y2="359.0938"/><ellipse cx="553.36" cy="372.7422" fill="#84BE84" rx="3" ry="3" style="stroke:#038048;stroke-width:1.0;"/><text fill="#000000" font-family="sans-serif" font-size="14" lengthAdjust="spacing" textLength="276" x="562.36" y="376.0889">func : int (* ) ( data_t* data, char** args )</text></g><!--class data_t--><g id="elem_data_t"><rect codeLine="34" fill="#F1F1F1" height="227.2656" id="data_t" rx="2.5" ry="2.5" style="stroke:#181818;stroke-width:0.5;" width="353" x="579.86" y="468"/><ellipse cx="731.11" cy="484" fill="#ADD1B2" rx="11" ry="11" style="stroke:#181818;stroke-width:1.0;"/><path d="M734.0788,489.6406 Q733.5006,489.9375 732.86,490.0781 Q732.2194,490.2344 731.5163,490.2344 Q729.0163,490.2344 727.6881,488.5938 Q726.3756,486.9375 726.3756,483.8125 Q726.3756,480.6875 727.6881,479.0313 Q729.0163,477.375 731.5163,477.375 Q732.2194,477.375 732.86,477.5313 Q733.5163,477.6875 734.0788,477.9844 L734.0788,480.7031 Q733.4538,480.125 732.86,479.8594 Q732.2663,479.5781 731.6413,479.5781 Q730.2975,479.5781 729.61,480.6563 Q728.9225,481.7188 728.9225,483.8125 Q728.9225,485.9063 729.61,486.9844 Q730.2975,488.0469 731.6413,488.0469 Q732.2663,488.0469 732.86,487.7813 Q733.4538,487.5 734.0788,486.9219 L734.0788,489.6406 Z " fill="#000000"/><text fill="#000000" font-family="sans-serif" font-size="14" lengthAdjust="spacing" textLength="42" x="751.61" y="488.8467">data_t</text><line style="stroke:#181818;stroke-width:0.5;" x1="580.86" x2="931.86" y1="500" y2="500"/><ellipse cx="590.86" cy="513.6484" fill="none" rx="3" ry="3" style="stroke:#038048;stroke-width:1.0;"/><text fill="#000000" font-family="sans-serif" font-size="14" lengthAdjust="spacing" textLength="62" x="599.86" y="516.9951">ip : char*</text><ellipse cx="590.86" cy="529.9453" fill="none" rx="3" ry="3" style="stroke:#038048;stroke-width:1.0;"/><text fill="#000000" font-family="sans-serif" font-size="14" lengthAdjust="spacing" textLength="121" x="599.86" y="533.292">clients : client_t**</text><ellipse cx="590.86" cy="546.2422" fill="none" rx="3" ry="3" style="stroke:#038048;stroke-width:1.0;"/><text fill="#000000" font-family="sans-serif" font-size="14" lengthAdjust="spacing" textLength="122" x="599.86" y="549.5889">curr_cli_index : int</text><ellipse cx="590.86" cy="562.5391" fill="none" rx="3" ry="3" style="stroke:#038048;stroke-width:1.0;"/><text fill="#000000" font-family="sans-serif" font-size="14" lengthAdjust="spacing" textLength="57" x="599.86" y="565.8857">freq : int</text><ellipse cx="590.86" cy="578.8359" fill="none" rx="3" ry="3" style="stroke:#038048;stroke-width:1.0;"/><text fill="#000000" font-family="sans-serif" font-size="14" lengthAdjust="spacing" textLength="100" x="599.86" y="582.1826">nb_clients : int</text><ellipse cx="590.86" cy="595.1328" fill="none" rx="3" ry="3" style="stroke:#038048;stroke-width:1.0;"/><text fill="#000000" font-family="sans-serif" font-size="14" lengthAdjust="spacing" textLength="88" x="599.86" y="598.4795">nb_slots : int</text><ellipse cx="590.86" cy="611.4297" fill="none" rx="3" ry="3" style="stroke:#038048;stroke-width:1.0;"/><text fill="#000000" font-family="sans-serif" font-size="14" lengthAdjust="spacing" textLength="58" x="599.86" y="614.7764">port : int</text><ellipse cx="590.86" cy="627.7266" fill="none" rx="3" ry="3" style="stroke:#038048;stroke-width:1.0;"/><text fill="#000000" font-family="sans-serif" font-size="14" lengthAdjust="spacing" textLength="92" x="599.86" y="631.0732">map : map_t*</text><ellipse cx="590.86" cy="644.0234" fill="none" rx="3" ry="3" style="stroke:#038048;stroke-width:1.0;"/><text fill="#000000" font-family="sans-serif" font-size="14" lengthAdjust="spacing" textLength="117" x="599.86" y="647.3701">teams : team_t**</text><ellipse cx="590.86" cy="660.3203" fill="none" rx="3" ry="3" style="stroke:#038048;stroke-width:1.0;"/><text fill="#000000" font-family="sans-serif" font-size="14" lengthAdjust="spacing" textLength="247" x="599.86" y="663.667">last_select_ms : unsigned long long</text><ellipse cx="590.86" cy="676.6172" fill="none" rx="3" ry="3" style="stroke:#038048;stroke-width:1.0;"/><text fill="#000000" font-family="sans-serif" font-size="14" lengthAdjust="spacing" textLength="327" x="599.86" y="679.9639">remaining_rsrc_spawn_ms : unsigned long long</text><line style="stroke:#181818;stroke-width:0.5;" x1="580.86" x2="931.86" y1="687.2656" y2="687.2656"/></g><!--class egg_t--><g id="elem_egg_t"><rect codeLine="49" fill="#F1F1F1" height="129.4844" id="egg_t" rx="2.5" ry="2.5" style="stroke:#181818;stroke-width:0.5;" width="339" x="925.86" y="944"/><ellipse cx="1071.61" cy="960" fill="#ADD1B2" rx="11" ry="11" style="stroke:#181818;stroke-width:1.0;"/><path d="M1074.5788,965.6406 Q1074.0006,965.9375 1073.36,966.0781 Q1072.7194,966.2344 1072.0163,966.2344 Q1069.5163,966.2344 1068.1881,964.5938 Q1066.8756,962.9375 1066.8756,959.8125 Q1066.8756,956.6875 1068.1881,955.0313 Q1069.5163,953.375 1072.0163,953.375 Q1072.7194,953.375 1073.36,953.5313 Q1074.0163,953.6875 1074.5788,953.9844 L1074.5788,956.7031 Q1073.9538,956.125 1073.36,955.8594 Q1072.7663,955.5781 1072.1413,955.5781 Q1070.7975,955.5781 1070.11,956.6563 Q1069.4225,957.7188 1069.4225,959.8125 Q1069.4225,961.9063 1070.11,962.9844 Q1070.7975,964.0469 1072.1413,964.0469 Q1072.7663,964.0469 1073.36,963.7813 Q1073.9538,963.5 1074.5788,962.9219 L1074.5788,965.6406 Z " fill="#000000"/><text fill="#000000" font-family="sans-serif" font-size="14" lengthAdjust="spacing" textLength="39" x="1092.11" y="964.8467">egg_t</text><line style="stroke:#181818;stroke-width:0.5;" x1="926.86" x2="1263.86" y1="976" y2="976"/><ellipse cx="936.86" cy="989.6484" fill="none" rx="3" ry="3" style="stroke:#038048;stroke-width:1.0;"/><text fill="#000000" font-family="sans-serif" font-size="14" lengthAdjust="spacing" textLength="61" x="945.86" y="992.9951">food : int</text><ellipse cx="936.86" cy="1005.9453" fill="none" rx="3" ry="3" style="stroke:#038048;stroke-width:1.0;"/><text fill="#000000" font-family="sans-serif" font-size="14" lengthAdjust="spacing" textLength="42" x="945.86" y="1009.292">id : int</text><ellipse cx="936.86" cy="1022.2422" fill="none" rx="3" ry="3" style="stroke:#038048;stroke-width:1.0;"/><text fill="#000000" font-family="sans-serif" font-size="14" lengthAdjust="spacing" textLength="121" x="945.86" y="1025.5889">progenitor_id : int</text><ellipse cx="936.86" cy="1038.5391" fill="none" rx="3" ry="3" style="stroke:#038048;stroke-width:1.0;"/><text fill="#000000" font-family="sans-serif" font-size="14" lengthAdjust="spacing" textLength="84" x="945.86" y="1041.8857">pos : pos_t*</text><ellipse cx="936.86" cy="1054.8359" fill="none" rx="3" ry="3" style="stroke:#038048;stroke-width:1.0;"/><text fill="#000000" font-family="sans-serif" font-size="14" lengthAdjust="spacing" textLength="313" x="945.86" y="1058.1826">remaining_digestion_ms : unsigned long long</text><line style="stroke:#181818;stroke-width:0.5;" x1="926.86" x2="1263.86" y1="1065.4844" y2="1065.4844"/></g><!--class instruction_t--><g id="elem_instruction_t"><rect codeLine="58" fill="#F1F1F1" height="80.5938" id="instruction_t" rx="2.5" ry="2.5" style="stroke:#181818;stroke-width:0.5;" width="302" x="879.36" y="294.5"/><ellipse cx="983.61" cy="310.5" fill="#ADD1B2" rx="11" ry="11" style="stroke:#181818;stroke-width:1.0;"/><path d="M986.5788,316.1406 Q986.0006,316.4375 985.36,316.5781 Q984.7194,316.7344 984.0163,316.7344 Q981.5163,316.7344 980.1881,315.0938 Q978.8756,313.4375 978.8756,310.3125 Q978.8756,307.1875 980.1881,305.5313 Q981.5163,303.875 984.0163,303.875 Q984.7194,303.875 985.36,304.0313 Q986.0163,304.1875 986.5788,304.4844 L986.5788,307.2031 Q985.9538,306.625 985.36,306.3594 Q984.7663,306.0781 984.1413,306.0781 Q982.7975,306.0781 982.11,307.1563 Q981.4225,308.2188 981.4225,310.3125 Q981.4225,312.4063 982.11,313.4844 Q982.7975,314.5469 984.1413,314.5469 Q984.7663,314.5469 985.36,314.2813 Q985.9538,314 986.5788,313.4219 L986.5788,316.1406 Z " fill="#000000"/><text fill="#000000" font-family="sans-serif" font-size="14" lengthAdjust="spacing" textLength="85" x="1004.11" y="315.3467">instruction_t</text><line style="stroke:#181818;stroke-width:0.5;" x1="880.36" x2="1180.36" y1="326.5" y2="326.5"/><ellipse cx="890.36" cy="340.1484" fill="none" rx="3" ry="3" style="stroke:#038048;stroke-width:1.0;"/><text fill="#000000" font-family="sans-serif" font-size="14" lengthAdjust="spacing" textLength="89" x="899.36" y="343.4951">name : char*</text><line style="stroke:#181818;stroke-width:0.5;" x1="880.36" x2="1180.36" y1="350.7969" y2="350.7969"/><ellipse cx="890.36" cy="364.4453" fill="#84BE84" rx="3" ry="3" style="stroke:#038048;stroke-width:1.0;"/><text fill="#000000" font-family="sans-serif" font-size="14" lengthAdjust="spacing" textLength="276" x="899.36" y="367.792">func : int (* ) ( data_t* data, char** args )</text></g><!--class map_t--><g id="elem_map_t"><rect codeLine="64" fill="#F1F1F1" height="96.8906" id="map_t" rx="2.5" ry="2.5" style="stroke:#181818;stroke-width:0.5;" width="100" x="706.36" y="771"/><ellipse cx="733.06" cy="787" fill="#ADD1B2" rx="11" ry="11" style="stroke:#181818;stroke-width:1.0;"/><path d="M736.0288,792.6406 Q735.4506,792.9375 734.81,793.0781 Q734.1694,793.2344 733.4663,793.2344 Q730.9663,793.2344 729.6381,791.5938 Q728.3256,789.9375 728.3256,786.8125 Q728.3256,783.6875 729.6381,782.0313 Q730.9663,780.375 733.4663,780.375 Q734.1694,780.375 734.81,780.5313 Q735.4663,780.6875 736.0288,780.9844 L736.0288,783.7031 Q735.4038,783.125 734.81,782.8594 Q734.2163,782.5781 733.5913,782.5781 Q732.2475,782.5781 731.56,783.6563 Q730.8725,784.7188 730.8725,786.8125 Q730.8725,788.9063 731.56,789.9844 Q732.2475,791.0469 733.5913,791.0469 Q734.2163,791.0469 734.81,790.7813 Q735.4038,790.5 736.0288,789.9219 L736.0288,792.6406 Z " fill="#000000"/><text fill="#000000" font-family="sans-serif" font-size="14" lengthAdjust="spacing" textLength="42" x="749.66" y="791.8467">map_t</text><line style="stroke:#181818;stroke-width:0.5;" x1="707.36" x2="805.36" y1="803" y2="803"/><ellipse cx="717.36" cy="816.6484" fill="none" rx="3" ry="3" style="stroke:#038048;stroke-width:1.0;"/><text fill="#000000" font-family="sans-serif" font-size="14" lengthAdjust="spacing" textLength="74" x="726.36" y="819.9951">height : int</text><ellipse cx="717.36" cy="832.9453" fill="none" rx="3" ry="3" style="stroke:#038048;stroke-width:1.0;"/><text fill="#000000" font-family="sans-serif" font-size="14" lengthAdjust="spacing" textLength="67" x="726.36" y="836.292">width : int</text><line style="stroke:#181818;stroke-width:0.5;" x1="707.36" x2="805.36" y1="843.5938" y2="843.5938"/><ellipse cx="717.36" cy="857.2422" fill="#84BE84" rx="3" ry="3" style="stroke:#038048;stroke-width:1.0;"/><text fill="#000000" font-family="sans-serif" font-size="14" lengthAdjust="spacing" textLength="73" x="726.36" y="860.5889">int(** tiles)</text></g><!--class option_t--><g id="elem_option_t"><rect codeLine="71" fill="#F1F1F1" height="80.5938" id="option_t" rx="2.5" ry="2.5" style="stroke:#181818;stroke-width:0.5;" width="301" x="1216.86" y="294.5"/><ellipse cx="1335.11" cy="310.5" fill="#ADD1B2" rx="11" ry="11" style="stroke:#181818;stroke-width:1.0;"/><path d="M1338.0788,316.1406 Q1337.5006,316.4375 1336.86,316.5781 Q1336.2194,316.7344 1335.5163,316.7344 Q1333.0163,316.7344 1331.6881,315.0938 Q1330.3756,313.4375 1330.3756,310.3125 Q1330.3756,307.1875 1331.6881,305.5313 Q1333.0163,303.875 1335.5163,303.875 Q1336.2194,303.875 1336.86,304.0313 Q1337.5163,304.1875 1338.0788,304.4844 L1338.0788,307.2031 Q1337.4538,306.625 1336.86,306.3594 Q1336.2663,306.0781 1335.6413,306.0781 Q1334.2975,306.0781 1333.61,307.1563 Q1332.9225,308.2188 1332.9225,310.3125 Q1332.9225,312.4063 1333.61,313.4844 Q1334.2975,314.5469 1335.6413,314.5469 Q1336.2663,314.5469 1336.86,314.2813 Q1337.4538,314 1338.0788,313.4219 L1338.0788,316.1406 Z " fill="#000000"/><text fill="#000000" font-family="sans-serif" font-size="14" lengthAdjust="spacing" textLength="56" x="1355.61" y="315.3467">option_t</text><line style="stroke:#181818;stroke-width:0.5;" x1="1217.86" x2="1516.86" y1="326.5" y2="326.5"/><ellipse cx="1227.86" cy="340.1484" fill="none" rx="3" ry="3" style="stroke:#038048;stroke-width:1.0;"/><text fill="#000000" font-family="sans-serif" font-size="14" lengthAdjust="spacing" textLength="67" x="1236.86" y="343.4951">flag : char</text><line style="stroke:#181818;stroke-width:0.5;" x1="1217.86" x2="1516.86" y1="350.7969" y2="350.7969"/><ellipse cx="1227.86" cy="364.4453" fill="#84BE84" rx="3" ry="3" style="stroke:#038048;stroke-width:1.0;"/><text fill="#000000" font-family="sans-serif" font-size="14" lengthAdjust="spacing" textLength="275" x="1236.86" y="367.792">func : int (* ) ( data_t* data, char* value )</text></g><!--class pending_cmd_t--><g id="elem_pending_cmd_t"><rect codeLine="77" fill="#F1F1F1" height="96.8906" id="pending_cmd_t" rx="2.5" ry="2.5" style="stroke:#181818;stroke-width:0.5;" width="302" x="205.36" y="286.5"/><ellipse cx="299.11" cy="302.5" fill="#ADD1B2" rx="11" ry="11" style="stroke:#181818;stroke-width:1.0;"/><path d="M302.0788,308.1406 Q301.5006,308.4375 300.86,308.5781 Q300.2194,308.7344 299.5163,308.7344 Q297.0163,308.7344 295.6881,307.0938 Q294.3756,305.4375 294.3756,302.3125 Q294.3756,299.1875 295.6881,297.5313 Q297.0163,295.875 299.5163,295.875 Q300.2194,295.875 300.86,296.0313 Q301.5163,296.1875 302.0788,296.4844 L302.0788,299.2031 Q301.4538,298.625 300.86,298.3594 Q300.2663,298.0781 299.6413,298.0781 Q298.2975,298.0781 297.61,299.1563 Q296.9225,300.2188 296.9225,302.3125 Q296.9225,304.4063 297.61,305.4844 Q298.2975,306.5469 299.6413,306.5469 Q300.2663,306.5469 300.86,306.2813 Q301.4538,306 302.0788,305.4219 L302.0788,308.1406 Z " fill="#000000"/><text fill="#000000" font-family="sans-serif" font-size="14" lengthAdjust="spacing" textLength="106" x="319.61" y="307.3467">pending_cmd_t</text><line style="stroke:#181818;stroke-width:0.5;" x1="206.36" x2="506.36" y1="318.5" y2="318.5"/><ellipse cx="216.36" cy="332.1484" fill="none" rx="3" ry="3" style="stroke:#038048;stroke-width:1.0;"/><text fill="#000000" font-family="sans-serif" font-size="14" lengthAdjust="spacing" textLength="87" x="225.36" y="335.4951">args : char**</text><ellipse cx="216.36" cy="348.4453" fill="none" rx="3" ry="3" style="stroke:#038048;stroke-width:1.0;"/><text fill="#000000" font-family="sans-serif" font-size="14" lengthAdjust="spacing" textLength="242" x="225.36" y="351.792">remaining_ms : unsigned long long</text><line style="stroke:#181818;stroke-width:0.5;" x1="206.36" x2="506.36" y1="359.0938" y2="359.0938"/><ellipse cx="216.36" cy="372.7422" fill="#84BE84" rx="3" ry="3" style="stroke:#038048;stroke-width:1.0;"/><text fill="#000000" font-family="sans-serif" font-size="14" lengthAdjust="spacing" textLength="276" x="225.36" y="376.0889">func : int (* ) ( data_t* data, char** args )</text></g><!--class player_t--><g id="elem_player_t"><rect codeLine="84" fill="#F1F1F1" height="194.6719" id="player_t" rx="2.5" ry="2.5" style="stroke:#181818;stroke-width:0.5;" width="339" x="63.86" y="7"/><ellipse cx="202.61" cy="23" fill="#ADD1B2" rx="11" ry="11" style="stroke:#181818;stroke-width:1.0;"/><path d="M205.5788,28.6406 Q205.0006,28.9375 204.36,29.0781 Q203.7194,29.2344 203.0163,29.2344 Q200.5163,29.2344 199.1881,27.5938 Q197.8756,25.9375 197.8756,22.8125 Q197.8756,19.6875 199.1881,18.0313 Q200.5163,16.375 203.0163,16.375 Q203.7194,16.375 204.36,16.5313 Q205.0163,16.6875 205.5788,16.9844 L205.5788,19.7031 Q204.9538,19.125 204.36,18.8594 Q203.7663,18.5781 203.1413,18.5781 Q201.7975,18.5781 201.11,19.6563 Q200.4225,20.7188 200.4225,22.8125 Q200.4225,24.9063 201.11,25.9844 Q201.7975,27.0469 203.1413,27.0469 Q203.7663,27.0469 204.36,26.7813 Q204.9538,26.5 205.5788,25.9219 L205.5788,28.6406 Z " fill="#000000"/><text fill="#000000" font-family="sans-serif" font-size="14" lengthAdjust="spacing" textLength="53" x="223.11" y="27.8467">player_t</text><line style="stroke:#181818;stroke-width:0.5;" x1="64.86" x2="401.86" y1="39" y2="39"/><ellipse cx="74.86" cy="52.6484" fill="none" rx="3" ry="3" style="stroke:#038048;stroke-width:1.0;"/><text fill="#000000" font-family="sans-serif" font-size="14" lengthAdjust="spacing" textLength="131" x="83.86" y="55.9951">team_name : char*</text><ellipse cx="74.86" cy="68.9453" fill="none" rx="3" ry="3" style="stroke:#038048;stroke-width:1.0;"/><text fill="#000000" font-family="sans-serif" font-size="14" lengthAdjust="spacing" textLength="42" x="83.86" y="72.292">id : int</text><ellipse cx="74.86" cy="85.2422" fill="none" rx="3" ry="3" style="stroke:#038048;stroke-width:1.0;"/><text fill="#000000" font-family="sans-serif" font-size="14" lengthAdjust="spacing" textLength="93" x="83.86" y="88.5889">inventory : int</text><ellipse cx="74.86" cy="101.5391" fill="none" rx="3" ry="3" style="stroke:#038048;stroke-width:1.0;"/><text fill="#000000" font-family="sans-serif" font-size="14" lengthAdjust="spacing" textLength="101" x="83.86" y="104.8857">is_freezed : int</text><ellipse cx="74.86" cy="117.8359" fill="none" rx="3" ry="3" style="stroke:#038048;stroke-width:1.0;"/><text fill="#000000" font-family="sans-serif" font-size="14" lengthAdjust="spacing" textLength="61" x="83.86" y="121.1826">level : int</text><ellipse cx="74.86" cy="134.1328" fill="none" rx="3" ry="3" style="stroke:#038048;stroke-width:1.0;"/><text fill="#000000" font-family="sans-serif" font-size="14" lengthAdjust="spacing" textLength="173" x="83.86" y="137.4795">orientation : orientation_t</text><ellipse cx="74.86" cy="150.4297" fill="none" rx="3" ry="3" style="stroke:#038048;stroke-width:1.0;"/><text fill="#000000" font-family="sans-serif" font-size="14" lengthAdjust="spacing" textLength="272" x="83.86" y="153.7764">pending_cmd_queue : pending_cmd_t*</text><ellipse cx="74.86" cy="166.7266" fill="none" rx="3" ry="3" style="stroke:#038048;stroke-width:1.0;"/><text fill="#000000" font-family="sans-serif" font-size="14" lengthAdjust="spacing" textLength="84" x="83.86" y="170.0732">pos : pos_t*</text><ellipse cx="74.86" cy="183.0234" fill="none" rx="3" ry="3" style="stroke:#038048;stroke-width:1.0;"/><text fill="#000000" font-family="sans-serif" font-size="14" lengthAdjust="spacing" textLength="313" x="83.86" y="186.3701">remaining_digestion_ms : unsigned long long</text><line style="stroke:#181818;stroke-width:0.5;" x1="64.86" x2="401.86" y1="193.6719" y2="193.6719"/></g><!--class pos_t--><g id="elem_pos_t"><rect codeLine="97" fill="#F1F1F1" height="80.5938" id="pos_t" rx="2.5" ry="2.5" style="stroke:#181818;stroke-width:0.5;" width="70" x="1171.36" y="1133"/><ellipse cx="1186.36" cy="1149" fill="#ADD1B2" rx="11" ry="11" style="stroke:#181818;stroke-width:1.0;"/><path d="M1189.3288,1154.6406 Q1188.7506,1154.9375 1188.11,1155.0781 Q1187.4694,1155.2344 1186.7663,1155.2344 Q1184.2663,1155.2344 1182.9381,1153.5938 Q1181.6256,1151.9375 1181.6256,1148.8125 Q1181.6256,1145.6875 1182.9381,1144.0313 Q1184.2663,1142.375 1186.7663,1142.375 Q1187.4694,1142.375 1188.11,1142.5313 Q1188.7663,1142.6875 1189.3288,1142.9844 L1189.3288,1145.7031 Q1188.7038,1145.125 1188.11,1144.8594 Q1187.5163,1144.5781 1186.8913,1144.5781 Q1185.5475,1144.5781 1184.86,1145.6563 Q1184.1725,1146.7188 1184.1725,1148.8125 Q1184.1725,1150.9063 1184.86,1151.9844 Q1185.5475,1153.0469 1186.8913,1153.0469 Q1187.5163,1153.0469 1188.11,1152.7813 Q1188.7038,1152.5 1189.3288,1151.9219 L1189.3288,1154.6406 Z " fill="#000000"/><text fill="#000000" font-family="sans-serif" font-size="14" lengthAdjust="spacing" textLength="38" x="1200.36" y="1153.8467">pos_t</text><line style="stroke:#181818;stroke-width:0.5;" x1="1172.36" x2="1240.36" y1="1165" y2="1165"/><ellipse cx="1182.36" cy="1178.6484" fill="none" rx="3" ry="3" style="stroke:#038048;stroke-width:1.0;"/><text fill="#000000" font-family="sans-serif" font-size="14" lengthAdjust="spacing" textLength="37" x="1191.36" y="1181.9951">x : int</text><ellipse cx="1182.36" cy="1194.9453" fill="none" rx="3" ry="3" style="stroke:#038048;stroke-width:1.0;"/><text fill="#000000" font-family="sans-serif" font-size="14" lengthAdjust="spacing" textLength="37" x="1191.36" y="1198.292">y : int</text><line style="stroke:#181818;stroke-width:0.5;" x1="1172.36" x2="1240.36" y1="1205.5938" y2="1205.5938"/></g><!--class saved_opt_t--><g id="elem_saved_opt_t"><rect codeLine="103" fill="#F1F1F1" height="80.5938" id="saved_opt_t" rx="2.5" ry="2.5" style="stroke:#181818;stroke-width:0.5;" width="172" x="438.36" y="64"/><ellipse cx="479.01" cy="80" fill="#ADD1B2" rx="11" ry="11" style="stroke:#181818;stroke-width:1.0;"/><path d="M481.9788,85.6406 Q481.4006,85.9375 480.76,86.0781 Q480.1194,86.2344 479.4163,86.2344 Q476.9163,86.2344 475.5881,84.5938 Q474.2756,82.9375 474.2756,79.8125 Q474.2756,76.6875 475.5881,75.0313 Q476.9163,73.375 479.4163,73.375 Q480.1194,73.375 480.76,73.5313 Q481.4163,73.6875 481.9788,73.9844 L481.9788,76.7031 Q481.3538,76.125 480.76,75.8594 Q480.1663,75.5781 479.5413,75.5781 Q478.1975,75.5781 477.51,76.6563 Q476.8225,77.7188 476.8225,79.8125 Q476.8225,81.9063 477.51,82.9844 Q478.1975,84.0469 479.5413,84.0469 Q480.1663,84.0469 480.76,83.7813 Q481.3538,83.5 481.9788,82.9219 L481.9788,85.6406 Z " fill="#000000"/><text fill="#000000" font-family="sans-serif" font-size="14" lengthAdjust="spacing" textLength="83" x="498.71" y="84.8467">saved_opt_t</text><line style="stroke:#181818;stroke-width:0.5;" x1="439.36" x2="609.36" y1="96" y2="96"/><ellipse cx="449.36" cy="109.6484" fill="none" rx="3" ry="3" style="stroke:#038048;stroke-width:1.0;"/><text fill="#000000" font-family="sans-serif" font-size="14" lengthAdjust="spacing" textLength="146" x="458.36" y="112.9951">team_names : char**</text><ellipse cx="449.36" cy="125.9453" fill="none" rx="3" ry="3" style="stroke:#038048;stroke-width:1.0;"/><text fill="#000000" font-family="sans-serif" font-size="14" lengthAdjust="spacing" textLength="141" x="458.36" y="129.292">nb_cli_per_team : int</text><line style="stroke:#181818;stroke-width:0.5;" x1="439.36" x2="609.36" y1="136.5938" y2="136.5938"/></g><!--class team_t--><g id="elem_team_t"><rect codeLine="109" fill="#F1F1F1" height="80.5938" id="team_t" rx="2.5" ry="2.5" style="stroke:#181818;stroke-width:0.5;" width="127" x="967.86" y="779"/><ellipse cx="1004.46" cy="795" fill="#ADD1B2" rx="11" ry="11" style="stroke:#181818;stroke-width:1.0;"/><path d="M1007.4288,800.6406 Q1006.8506,800.9375 1006.21,801.0781 Q1005.5694,801.2344 1004.8663,801.2344 Q1002.3663,801.2344 1001.0381,799.5938 Q999.7256,797.9375 999.7256,794.8125 Q999.7256,791.6875 1001.0381,790.0313 Q1002.3663,788.375 1004.8663,788.375 Q1005.5694,788.375 1006.21,788.5313 Q1006.8663,788.6875 1007.4288,788.9844 L1007.4288,791.7031 Q1006.8038,791.125 1006.21,790.8594 Q1005.6163,790.5781 1004.9913,790.5781 Q1003.6475,790.5781 1002.96,791.6563 Q1002.2725,792.7188 1002.2725,794.8125 Q1002.2725,796.9063 1002.96,797.9844 Q1003.6475,799.0469 1004.9913,799.0469 Q1005.6163,799.0469 1006.21,798.7813 Q1006.8038,798.5 1007.4288,797.9219 L1007.4288,800.6406 Z " fill="#000000"/><text fill="#000000" font-family="sans-serif" font-size="14" lengthAdjust="spacing" textLength="47" x="1023.26" y="799.8467">team_t</text><line style="stroke:#181818;stroke-width:0.5;" x1="968.86" x2="1093.86" y1="811" y2="811"/><ellipse cx="978.86" cy="824.6484" fill="none" rx="3" ry="3" style="stroke:#038048;stroke-width:1.0;"/><text fill="#000000" font-family="sans-serif" font-size="14" lengthAdjust="spacing" textLength="89" x="987.86" y="827.9951">name : char*</text><ellipse cx="978.86" cy="840.9453" fill="none" rx="3" ry="3" style="stroke:#038048;stroke-width:1.0;"/><text fill="#000000" font-family="sans-serif" font-size="14" lengthAdjust="spacing" textLength="101" x="987.86" y="844.292">eggs : egg_t**</text><line style="stroke:#181818;stroke-width:0.5;" x1="968.86" x2="1093.86" y1="851.5938" y2="851.5938"/></g><!--reverse link client_t to player_t--><g id="link_client_t_player_t"><path codeLine="125" d="M255.13,745.27 C182.58,668.92 77.6,541.9 34.36,408 C14.41,346.25 6,320.37 34.36,262 C45.11,239.86 60.68,219.92 78.45,202.27 " fill="none" id="client_t-backto-player_t" style="stroke:#181818;stroke-width:1.0;"/><polygon fill="none" points="264.25,754.78,262.9844,747.6808,255.9446,746.1186,257.2102,753.2178,264.25,754.78" style="stroke:#181818;stroke-width:1.0;"/></g><!--reverse link cmd_t to data_t--><g id="link_cmd_t_data_t"><path codeLine="128" d="M708.91,396.37 C714.49,418.01 720.97,443.17 727.32,467.81 " fill="none" id="cmd_t-backto-data_t" style="stroke:#181818;stroke-width:1.0;"/><polygon fill="none" points="705.65,383.72,703.2736,390.5283,708.6441,395.3405,711.0206,388.5322,705.65,383.72" style="stroke:#181818;stroke-width:1.0;"/></g><!--reverse link data_t to client_t--><g id="link_data_t_client_t"><path codeLine="131" d="M568.03,686.83 C509.5,719.25 448.45,753.08 402.88,778.32 " fill="none" id="data_t-backto-client_t" style="stroke:#181818;stroke-width:1.0;"/><polygon fill="none" points="579.7,680.36,572.5132,679.7688,569.2033,686.1754,576.3901,686.7666,579.7,680.36" style="stroke:#181818;stroke-width:1.0;"/></g><!--reverse link data_t to map_t--><g id="link_data_t_map_t"><path codeLine="134" d="M756.36,708.44 C756.36,730.71 756.36,752.59 756.36,770.91 " fill="none" id="data_t-backto-map_t" style="stroke:#181818;stroke-width:1.0;"/><polygon fill="none" points="756.36,695.32,752.36,701.32,756.36,707.32,760.36,701.32,756.36,695.32" style="stroke:#181818;stroke-width:1.0;"/></g><!--reverse link data_t to team_t--><g id="link_data_t_team_t"><path codeLine="137" d="M898.06,704.11 C929.6,731.17 960.84,757.99 985.14,778.84 " fill="none" id="data_t-backto-team_t" style="stroke:#181818;stroke-width:1.0;"/><polygon fill="none" points="887.81,695.32,889.764,702.2613,896.9229,703.1273,894.9689,696.186,887.81,695.32" style="stroke:#181818;stroke-width:1.0;"/></g><!--reverse link egg_t to pos_t--><g id="link_egg_t_pos_t"><path codeLine="140" d="M1146.32,1084.34 C1157.68,1101.03 1169.3,1118.09 1179.26,1132.7 " fill="none" id="egg_t-backto-pos_t" style="stroke:#181818;stroke-width:1.0;"/><polygon fill="none" points="1138.91,1073.45,1138.9759,1080.6608,1145.6574,1083.3734,1145.5915,1076.1626,1138.91,1073.45" style="stroke:#181818;stroke-width:1.0;"/></g><!--reverse link instruction_t to data_t--><g id="link_instruction_t_data_t"><path codeLine="143" d="M976.06,384.45 C949.15,408.46 915.44,438.55 882.56,467.89 " fill="none" id="instruction_t-backto-data_t" style="stroke:#181818;stroke-width:1.0;"/><polygon fill="none" points="986.03,375.55,978.8901,376.5609,977.0771,383.5404,984.217,382.5295,986.03,375.55" style="stroke:#181818;stroke-width:1.0;"/></g><!--reverse link option_t to data_t--><g id="link_option_t_data_t"><path codeLine="146" d="M1264.35,380.79 C1242.92,389.93 1220.45,399.38 1199.36,408 C1111.98,443.72 1014.25,481.96 932.86,513.33 " fill="none" id="option_t-backto-data_t" style="stroke:#181818;stroke-width:1.0;"/><polygon fill="none" points="1276.48,375.61,1269.3904,374.2918,1265.4469,380.3291,1272.5365,381.6473,1276.48,375.61" style="stroke:#181818;stroke-width:1.0;"/></g><!--reverse link pending_cmd_t to data_t--><g id="link_pending_cmd_t_data_t"><path codeLine="149" d="M445.62,390.56 C485.19,414.75 533.2,444.1 579.53,472.42 " fill="none" id="pending_cmd_t-backto-data_t" style="stroke:#181818;stroke-width:1.0;"/><polygon fill="none" points="434.43,383.72,437.4653,390.2612,444.6707,389.9753,441.6354,383.4341,434.43,383.72" style="stroke:#181818;stroke-width:1.0;"/></g><!--reverse link player_t to orientation_t--><g id="link_player_t_orientation_t"><path codeLine="152" d="M175.51,213.84 C166.84,230.07 158.09,246.46 149.96,261.69 " fill="none" id="player_t-backto-orientation_t" style="stroke:#181818;stroke-width:1.0;"/><polygon fill="#181818" points="181.79,202.07,175.4362,205.4801,176.1402,212.6568,182.494,209.2467,181.79,202.07" style="stroke:#181818;stroke-width:1.0;"/></g><!--reverse link player_t to pending_cmd_t--><g id="link_player_t_pending_cmd_t"><path codeLine="155" d="M291.62,213.74 C305.34,239.22 319.27,265.11 330.68,286.3 " fill="none" id="player_t-backto-pending_cmd_t" style="stroke:#181818;stroke-width:1.0;"/><polygon fill="none" points="285.34,202.07,284.6675,209.2497,291.0363,212.6318,291.7088,205.4522,285.34,202.07" style="stroke:#181818;stroke-width:1.0;"/></g><!--reverse link player_t to pos_t--><g id="link_player_t_pos_t"><path codeLine="158" d="M415.62,200.39 C417.53,200.95 419.45,201.48 421.36,202 C541.02,234.35 1445.17,176.96 1535.36,262 C1639,359.73 1571.36,438.04 1571.36,580.5 C1571.36,580.5 1571.36,580.5 1571.36,820.5 C1571.36,1002.51 1333.29,1120.12 1241.69,1158.64 " fill="none" id="player_t-backto-pos_t" style="stroke:#181818;stroke-width:1.0;"/><polygon fill="none" points="402.97,196.44,407.5071,202.0449,414.4259,200.0125,409.8888,194.4076,402.97,196.44" style="stroke:#181818;stroke-width:1.0;"/></g><!--reverse link team_t to egg_t--><g id="link_team_t_egg_t"><path codeLine="161" d="M1049.21,872.68 C1056.78,894.8 1065.67,920.77 1073.62,943.99 " fill="none" id="team_t-backto-egg_t" style="stroke:#181818;stroke-width:1.0;"/><polygon fill="none" points="1044.93,860.16,1043.0907,867.1326,1048.8195,871.5122,1050.6588,864.5396,1044.93,860.16" style="stroke:#181818;stroke-width:1.0;"/></g><!--SRC=[hLLDRzim33t7lqAtfExQt7Shq08R1ZZ0sg97GRKPHOCjkPASBXlstqTAZYqxAJfiwq6kdlZDHsQzP9ldRr1wnvRhB0FTDSnO1TeBhupcdltC5dStzmzu5hVPejXyVVYKBUutZ_HvBBuKcwSYMppTeSIlBClAMZZ7ofeiHELBfTlEiu-it0cRuzrqVWfiAxmexKdMSGjIEGyMHhIjnG4iNkC_tEUfhwRg7MdHG6gsqsKqmLOvks0hLWalK3byFqIvd0ah7Rj0-GhGEYfurG3tYOUe5dDf4mSnIqT8dsyUuCvQZWXNkeBlGn9R2o_3HJ_pKNk0N6qIe3NM3vT6a6SyAVd5fGVHa2HzUxSOgkSEQkmb3s-TTafgB6Djj0m7IbbeXD9AIswTBRbhnQj-Ktmi0KZPLs1hJDAkf4VMID3A6yjJr91fF6FOe_TAIN21OUyxLzfvsvKZ7_-jqwFXKCwUetw54bxLu8WBEr1oDrR_LLL-rzz6TTCc8Mrh8VkG_ZGYjXTr1vE8Mj0LbMSaTGYwJ_LlM3sM_Fr27yShE0xKcXKwwQpIUwIliOTqTf7Zy2CPt1hsK0-tPAyWDjaoH9KazPSEEl8xAKV-l_WKr4EEutGUJhhhn1ugZZsUrsFIZZZ8lAMoeS29bJYWvqYB8qMMmcJbSQ7Xtth9FkiTMEM5Be5Pt4cKbTkfDcxeA7CZ9Ux9MCfJcUjX_vghAtPzR6j6Bu5O0Owy8R1VS04zgixnC2jpC6P7Q5mGqHsLbx3ftCvy3iCpmwSJC7yy4ZGdVCgWz3d6aLewytmCiszH04CQsT2AMo0ZeCl3-KwGJ86yGwAPv5Sq-mq0]--></g></svg>